<?xml version="1.0" encoding="UTF-8"?><svg id="Layer_2" xmlns="http://www.w3.org/2000/svg" viewBox="0 0 220 80.76"><defs><style>.cls-1{letter-spacing:-.02em;}.cls-2{font-size:21.95px;}.cls-3{letter-spacing:0em;}.cls-4{font-family:AvenirLTStd-MediumOblique, 'Avenir LT Std';font-size:7.91px;font-style:oblique;font-weight:500;}.cls-4,.cls-5,.cls-6{fill:#991914;}.cls-5{font-family:AvenirLTStd-Roman, 'Avenir LT Std';}.cls-7{font-size:38.68px;}.cls-8{letter-spacing:-.02em;}</style></defs><text class="cls-5" transform="translate(99.92 37.96)"><tspan class="cls-7"><tspan x="0" y="0">MUSIC</tspan></tspan><tspan class="cls-2"><tspan x="0" y="21.34">EXCHANGE</tspan></tspan></text><path class="cls-6" d="M78.81,9.88c1.43-.14-.05,1.91-.78,2.83-.09.11.04.26.16.2,1.17-.6,4-2.44,5-6.6.42-1.75-.46-5.05-3.42-1.76-3.8,4.21-2.79,5.5-.95,5.33Z"/><path class="cls-6" d="M44.87,62.86c-6.72-5.11-24.75-12.9-30.57-15.35-.83-.35-.99-1.45-.3-2.02,7-5.79,35.14-30.07,26.85-39.67C32.94-3.33,24.72-2.65.02,21.88c-.35,4.38,3.33,6.13,3.33,6.13v15.36s-2.63.14-2.63,5.69c0,4.96,2.63,5.58,2.63,5.58v22.83c0,.42.49.66.82.4.79-.87,1.82-1.85,3.14-2.78.65-.45,1.28-.83,1.87-1.15.09-.07.25-.21.36-.44.09-.17.13-.36.14-.55l.45-16.28s10.93.72,21.62,7.73c10.68,6.04,13.66,9.69,16.19,11.85s6.4.65,6.4-2.5c0-1.86-1.4-4.73-9.46-10.86ZM9.71,38.66v-18.38S31.38-.07,34.12,9.88c2.6,9.45-24.41,28.78-24.41,28.78Z"/><path class="cls-6" d="M98.78,20.37c-1.71-1.71-1.31,4.47-7.31,7.27-6,2.8,2.44-2.32,2.32-9.72-.05-2.95-3.42-11.29-6.7-10.92-1.94.21-1.74,2.48-.91,5-.03-.02-.06-.03-.09-.05-1.83,4.52-3.93,9.28-6.33,14.21-2.31,4.75-4.67,9.17-7.01,13.26-.11,0-.47.06-.45-.13.45-3.3,1.59-11.37,2.5-14.39.59-1.95,2.32-7.39-.77-8.24-3.09-.85-2.14,4.49-6.06,12.45-2.3,4.66-5.39,8.65-6.5,7.62-1.93-1.78,1.97-8.73,3.02-11.3,1.9-4.66,1.04-6.41-.87-6.2-2.69.3-6.76,10.12-6.09,16.77-1.19,2.42-3.31,5.81-5.91,5.98-3.59.23-1.57-8.32-1.04-10.34.07-.27-.01-.55-.21-.74l-2.38-2.27c-.08-.08-.06-.22.05-.26.57-.24,1.89-1.02.95-2.8-1.18-2.23-3.28-2.23-5.39,0-2.1,2.23-10.37,9.59-11.29,17.14-.83,6.85,3.54,8.84,5.91,8.92,3.88.14,7.23-7.28,7.75-11.22.53-3.94-1.44,9.2,3.35,9.46,3.45.19,6.74-8.35,8.3-13.14.26,1.65.85,3.06,1.88,4.01,5.67,5.24,7.55-4.14,10.75-7.84.07-.08.19-.07.17.04l-2.51,17.6c-.21,1.44.29,2.88,1.32,3.9l.37.36c.46.45,1.22.25,1.4-.36,1.85-6.13,4.04-12.61,6.63-19.35.87-2.26,1.75-4.46,2.64-6.62.32,1.52,1.26,3.27,2.75,3.92,2.19.96,5.54,2.38,10.07-1.23,2.8-2.23,6.66-9.81,5.69-10.77ZM37.56,46.62c-4.25-2.6,6.02-14.04,8.16-16.34.11-.12.3-.02.27.14-.66,3.15-4.17,18.81-8.43,16.21ZM87.13,27.2c-2.54.13-.96-.7-1.84-1.18-.6-.33-2.57-.64-3.88-.32,1.78-4.2,3.6-8.19,5.42-11.97.65,1.57,1.4,3.07,1.92,4.1,1.53,3.07.92,9.24-1.62,9.37Z"/><rect class="cls-6" x="101.84" y="65.69" width="117.05" height="2.63"/><text class="cls-4" transform="translate(71.39 80.07)"><tspan x="0" y="0">LONDON</tspan><tspan class="cls-8" x="35.73" y="0"> </tspan><tspan x="37.78" y="0">• BERLIN</tspan><tspan class="cls-1" x="71.19" y="0"> </tspan><tspan class="cls-3" x="73.23" y="0">• CALUMET CITY</tspan></text></svg>